# .PCD v0.7 - Point Cloud Data file format
# Event Created: 2025-08-19 14:21:23.881000+02:00
VERSION 0.7
FIELDS x y z
SIZE 4 4 4
TYPE F F F
COUNT 1 1 1
WIDTH 500
HEIGHT 1
VIEWPOINT 0 0 0 1 0 0 0
POINTS 500
DATA ascii
44.176 74.353 10.898
87.114 87.964 83.052
36.374 93.759 9.353
75.053 83.898 10.281
92.03 98.401 84.718
9.51 27.6 72.851
11.579 93.889 82.582
49.41 58.753 48.975
72.91 48.057 97.404
36.153 75.52 5.222
57.72 79.87 37.135
97.822 94.835 38.743
67.75 98.33 6.566
92.546 89.067 14.283
10.126 99.986 50.146
4.209 81.335 35.711
40.409 27.573 53.179
44.707 18.744 90.251
3.999 6.758 73.334
76.357 11.463 20.553
68.091 39.764 5.916
88.074 70.951 27.195
18.172 84.997 57.913
82.686 79.258 83.891
61.771 73.688 16.333
91.282 51.131 26.836
25.932 80.192 27.646
42.475 96.426 10.65
97.85 54.11 5.54
37.928 78.386 53.513
61.2 44.825 32.071
38.27 20.895 76.095
0.628 83.354 42.405
62.722 19.411 19.578
21.108 1.885 55.945
51.512 23.677 85.433
88.973 0.965 40.039
81.701 87.111 12.369
40.086 10.566 69.171
22.02 92.975 23.103
6.022 23.482 22.925
72.343 58.609 82.184
66.962 74.288 1.433
39.92 41.551 12.446
5.58 23.373 98.665
82.415 54.33 85.92
15.04 16.675 55.936
62.86 57.22 2.398
1.034 95.048 40.401
82.177 32.046 58.186
63.14 29.752 31.924
81.3 77.843 75.173
56.242 88.204 60.621
81.775 86.35 58.589
17.683 67.707 96.266
33.581 15.298 90.455
20.398 47.784 31.226
73.383 50.714 45.359
19.365 92.932 51.461
79.42 55.624 16.416
31.945 23.545 16.25
95.678 12.333 89.642
12.998 87.044 97.936
35.546 88.889 3.422
10.238 5.192 86.695
37.916 55.686 99.334
35.717 28.06 62.635
11.763 19.542 59.68
11.993 94.738 89.733
44.059 86.92 99.163
98.063 36.988 71.418
88.53 95.694 6.61
4.765 95.283 46.154
31.842 85.236 53.681
90.585 15.983 69.132
97.677 65.416 43.043
52.678 74.756 41.555
37.478 4.284 59.558
44.564 56.022 57.603
55.145 32.185 53.074
57.265 87.98 17.321
62.318 51.715 55.619
56.309 36.261 73.468
51.255 40.58 88.918
69.481 35.062 23.975
33.724 69.111 65.55
61.8 73.222 87.596
52.229 70.727 58.244
2.334 12.012 57.542
79.389 42.19 23.603
27.728 68.173 74.612
0.516 61.51 32.992
31.016 99.664 55.752
46.753 41.002 23.194
81.574 39.745 35.733
18.12 63.445 16.513
17.359 39.901 61.587
39.991 38.184 73.874
86.787 23.671 89.065
61.475 92.605 37.157
72.872 33.843 64.721
85.878 55.724 78.756
29.674 98.355 31.587
24.191 0.879 26.008
89.59 4.309 0.957
89.545 76.534 81.46
88.449 2.555 7.442
95.522 36.884 44.761
97.176 74.691 99.996
59.984 3.692 1.499
60.69 80.835 50.365
30.637 60.914 12.862
5.931 68.213 34.526
55.012 10.081 13.014
62.44 18.931 19.525
59.694 20.29 11.482
57.228 66.628 86.381
80.803 54.276 82.529
74.81 31.342 14.977
27.61 5.219 58.557
33.211 74.614 2.47
57.574 45.844 81.496
88.853 9.181 61.293
29.245 88.137 1.629
57.021 51.967 80.051
64.688 24.751 29.571
20.564 79.431 49.543
58.166 78.532 28.752
16.873 52.523 97.342
7.708 30.542 29.97
69.516 49.373 7.513
84.785 44.231 82.518
95.335 41.974 13.668
52.057 62.862 8.919
89.353 69.525 76.781
74.101 87.926 32.594
97.333 39.707 0.047
38.709 88.431 43.227
74.12 99.635 58.908
81.454 86.491 12.388
73.362 59.609 87.242
43.316 13.622 81.945
31.946 16.263 83.512
82.717 41.223 31.9
17.918 70.652 7.52
97.789 32.8 14.055
31.699 59.878 68.864
34.662 74.919 29.665
70.979 54.185 29.907
44.443 59.216 51.53
67.635 69.919 22.745
64.151 0.849 98.965
26.541 57.794 8.909
62.218 20.028 58.031
24.945 19.773 2.668
98.26 65.191 28.512
72.728 18.667 67.646
53.041 40.123 4.385
77.862 94.784 62.861
88.308 44.347 27.434
67.109 8.382 80.817
58.056 4.539 89.234
26.825 92.6 31.667
54.278 38.405 41.379
57.765 57.501 60.282
23.816 45.905 95.363
37.177 9.859 11.602
36.316 16.338 31.342
74.862 27.863 72.844
8.2 90.073 18.139
11.559 6.362 91.517
86.476 16.154 73.992
50.402 49.272 62.46
48.169 32.341 64.477
38.547 13.101 77.438
96.249 42.111 7.105
46.508 28.213 87.516
39.742 62.271 6.764
90.901 71.584 7.985
21.427 74.447 17.075
55.219 70.718 80.816
13.367 62.084 64.177
11.016 31.191 13.091
97.541 63.739 2.564
88.189 89.52 77.978
99.184 28.237 33.054
7.268 64.124 15.809
90.58 74.512 78.385
98.516 10.245 24.91
43.625 27.645 34.633
76.219 47.72 65.274
23.78 65.495 34.355
41.076 4.784 84.548
4.311 89.285 12.065
83.63 10.593 52.455
70.27 90.384 6.238
3.958 20.064 95.967
65.782 69.202 73.937
51.969 9.11 57.063
45.166 49.771 40.893
8.231 22.892 56.366
6.816 61.688 82.383
79.565 45.789 75.194
90.209 26.168 93.976
77.861 36.263 36.91
76.258 82.696 86.812
93.351 72.914 46.666
97.454 77.177 38.903
27.906 64.789 76.814
75.759 7.849 3.429
79.635 31.802 0.607
42.942 74.463 2.597
91.115 41.074 67.111
84.466 53.745 26.135
24.382 40.708 27.379
59.082 18.461 1.865
3.388 11.493 47.476
89.68 53.448 42.506
33.472 75.542 50.433
79.089 66.516 1.349
37.051 72.72 43.226
41.448 16.355 4.769
55.025 98.372 18.822
28.053 27.4 13.108
78.884 53.106 52.335
73.231 85.55 20.597
47.818 27.039 8.54
58.708 44.125 81.1
47.495 67.605 62.846
15.329 15.75 15.681
18.362 3.631 0.131
98.483 29.427 16.513
3.366 83.316 25.919
65.644 32.783 44.804
76.965 67.087 77.26
48.251 66.961 49.413
9.88 24.228 4.127
10.149 81.872 8.259
56.042 77.135 6.533
4.03 62.22 34.106
2.613 97.922 76.157
83.529 11.055 78.946
28.363 0.885 92.166
95.889 17.111 60.44
99.681 83.278 19.661
96.629 80.52 46.855
72.452 23.904 95.04
37.26 16.111 52.252
0.162 90.906 45.053
58.261 38.725 78.67
16.368 97.379 50.808
51.525 26.441 14.02
84.082 18.937 52.226
0.415 53.623 54.346
65.516 32.123 51.084
77.603 0.796 67.664
48.438 84.847 29.849
67.341 39.748 24.287
53.03 50.343 99.488
62.384 61.484 8.125
36.298 74.268 11.541
74.219 79.059 53.953
71.219 23.833 46.916
89.523 75.062 81.974
18.577 95.302 20.708
86.56 9.235 89.12
5.651 11.399 31.492
39.563 24.705 59.689
21.771 87.84 6.135
0.277 46.159 48.62
41.631 41.763 24.685
19.704 52.799 30.096
28.627 32.347 19.288
85.351 63.736 70.815
48.894 42.183 72.659
79.042 88.273 59.39
49.474 93.464 14.56
33.765 12.207 0.609
17.794 23.706 82.321
97.844 26.602 53.681
64.675 48.553 15.871
33.916 50.447 62.535
35.494 16.254 64.332
66.287 17.184 15.556
4.776 38.079 19.713
70.927 92.29 54.158
68.065 61.327 70.533
58.194 19.101 73.651
38.158 26.808 63.744
17.285 74.792 74.371
21.543 77.7 65.224
98.124 80.132 55.994
73.399 69.093 70.21
45.263 71.369 66.947
72.471 2.306 47.643
89.906 37.593 53.045
70.833 5.491 0.691
26.069 60.619 97.99
68.628 36.053 84.966
44.293 88.254 26.68
38.088 38.274 78.106
78.316 49.2 63.664
77.115 85.519 43.46
94.882 88.024 47.972
10.952 4.421 91.236
42.883 19.444 34.539
85.387 88.489 12.599
96.323 17.446 32.696
57.289 55.842 31.735
31.705 10.167 99.444
52.522 89.61 3.3
3.727 27.206 21.107
1.318 89.177 99.328
29.25 27.015 25.58
51.019 50.909 76.853
39.84 47.622 15.101
57.676 66.48 36.01
50.275 46.35 57.285
22.656 76.334 12.598
69.67 29.013 88.476
73.383 72.953 70.455
54.12 19.841 37.749
63.117 11.344 91.422
51.706 38.187 5.793
53.67 82.013 49.3
10.191 86.441 1.719
97.38 70.678 55.551
96.422 0.393 80.337
13.144 38.035 73.689
2.545 34.781 11.744
77.076 26.714 47.29
22.922 41.297 74.514
92.758 7.109 78.793
21.472 17.101 81.64
80.615 89.106 9.799
62.676 58.115 19.207
11.435 49.897 29.756
47.432 31.185 55.743
12.812 9.105 30.206
21.432 95.304 7.33
52.203 4.167 3.95
97.485 6.45 8.282
54.764 6.016 24.671
16.862 50.926 6.853
20.726 75.212 52.839
11.638 14.478 91.656
14.552 93.683 52.672
80.224 24.756 18.543
64.704 47.588 96.48
72.413 82.767 88.116
25.771 51.941 28.789
42.117 59.387 71.791
84.806 20.952 93.955
67.788 59.775 4.61
83.793 38.001 91.235
18.451 32.56 99.266
88.366 11.589 44.434
2.493 79.347 45.093
34.112 16.103 22.239
1.956 26.046 34.55
17.698 52.389 32.801
64.357 48.992 4.945
99.233 80.045 82.145
86.587 31.297 60.129
26.347 51.695 96.49
8.194 52.83 20.972
76.643 64.016 45.095
81.739 95.567 4.273
34.15 29.494 94.021
60.371 53.0 17.041
6.029 20.948 44.698
34.198 62.408 28.024
14.155 0.831 14.023
55.8 70.995 88.028
3.393 26.983 61.706
13.28 55.81 48.459
49.87 51.085 77.265
86.868 2.22 2.756
86.622 90.599 86.619
51.285 28.262 77.674
6.435 4.712 84.596
18.639 28.691 7.856
8.083 43.491 62.708
5.365 40.725 37.536
3.166 75.737 35.7
9.376 23.137 81.804
35.813 6.139 60.964
19.806 88.216 17.497
62.885 98.0 93.487
94.05 64.607 2.538
85.254 29.142 81.613
44.544 84.411 2.58
84.882 80.179 79.336
25.948 56.557 51.781
7.167 66.204 44.74
28.307 38.31 61.379
68.213 88.045 75.402
67.431 2.593 4.444
82.873 12.523 30.692
67.942 41.581 79.734
10.16 70.918 51.628
16.536 34.651 18.462
49.163 59.693 85.589
70.389 82.501 87.383
65.549 18.677 6.43
6.643 78.679 24.47
55.108 51.725 85.822
10.325 92.817 43.302
73.476 1.147 93.674
93.625 23.599 20.123
58.309 10.644 68.684
48.226 77.618 13.308
98.329 27.229 1.708
53.9 81.994 39.445
7.222 7.105 95.902
90.423 9.686 42.957
19.793 51.965 86.822
56.461 41.895 70.576
38.75 73.649 41.493
0.893 75.148 9.062
98.549 67.944 4.982
46.855 18.364 39.447
11.535 83.281 30.366
42.706 40.142 15.386
60.379 54.827 21.214
17.9 31.23 13.081
65.326 13.336 40.4
93.2 67.416 3.551
46.318 3.955 81.364
67.511 74.486 3.27
91.417 85.903 41.002
61.085 0.963 63.168
58.682 45.957 57.323
88.857 17.505 78.032
40.345 17.01 46.732
99.286 38.092 49.737
31.033 6.946 35.955
69.737 2.25 62.138
17.455 79.039 71.835
58.678 64.802 80.967
95.408 33.664 22.36
92.152 26.839 64.969
58.885 64.203 17.099
13.767 50.856 32.782
37.668 92.83 5.481
28.301 64.43 72.708
96.068 9.849 15.808
0.527 34.131 44.334
28.056 65.187 69.887
88.218 49.711 15.119
74.47 70.557 79.916
71.627 52.677 19.878
25.802 72.67 52.745
89.698 90.98 57.443
80.473 35.127 66.395
46.137 61.973 26.983
9.531 18.086 94.739
71.27 51.023 57.152
69.921 35.492 43.058
58.296 32.816 33.418
41.457 47.372 76.806
71.39 65.905 77.71
10.883 18.6 36.155
75.718 24.545 5.747
42.498 7.584 4.366
73.798 73.27 96.626
59.91 79.105 83.665
14.457 72.513 17.296
88.336 49.166 37.453
46.736 8.793 94.592
67.983 0.624 95.494
58.29 87.931 49.097
83.285 20.097 93.498
44.636 12.139 54.586
22.02 0.489 4.441
30.726 37.347 19.593
50.729 40.453 39.714
34.396 50.545 70.445
84.303 27.381 81.852
78.068 42.759 84.049
79.929 33.896 12.144
97.402 55.27 59.531
59.572 12.939 56.682
76.104 39.568 57.854
94.529 77.114 0.369
6.335 65.446 5.337
93.076 72.946 70.093
20.062 97.561 83.912
52.199 68.732 98.171
3.856 0.642 25.825
59.285 78.629 29.818
45.96 42.985 45.325
17.191 91.923 31.781
64.018 85.338 21.922
49.53 60.502 23.32
3.278 87.961 48.22
89.643 52.707 40.481
82.491 94.741 51.673
19.031 20.931 5.388
56.185 21.264 82.905